<svg aria-hidden="true" style="position: absolute; width: 0; height: 0; overflow: hidden;" version="1.1" xmlns="http://www.w3.org/2000/svg" xmlns:xlink="http://www.w3.org/1999/xlink">
<defs>
<symbol id="close" viewBox="0 0 32 32">
<path d="M29.632 30.995c-0.273 0-0.818 0-1.091-0.273l-27.264-27.264c-0.545-0.545-0.545-1.363 0-1.909s1.363-0.545 1.909 0l27.264 27.264c0.545 0.545 0.545 1.363 0 1.909 0 0.273-0.545 0.273-0.818 0.273z"></path>
<path d="M2.368 30.995c-0.273 0-0.818 0-1.091-0.273-0.545-0.545-0.545-1.363 0-1.909l27.264-27.264c0.545-0.545 1.363-0.545 1.909 0s0.545 1.363 0 1.909l-27.264 27.264c0 0.273-0.545 0.273-0.818 0.273z"></path>
</symbol>
<symbol id="enter" viewBox="0 0 32 32">
<path d="M2.537 20.488h22.438c1.795 0 3.366-1.571 3.366-3.366v-13.463c0-0.673 0.449-1.122 1.122-1.122s1.122 0.449 1.122 1.122v13.463c0 3.141-2.468 5.61-5.61 5.61h-22.438v-2.244z"></path>
<path d="M9.269 29.463c-0.224 0-0.673 0-0.898-0.224l-6.731-6.731c-0.449-0.449-0.449-1.122 0-1.571l6.731-6.731c0.449-0.449 1.122-0.449 1.571 0s0.449 1.122 0 1.571l-5.834 5.834 5.834 5.834c0.449 0.449 0.449 1.122 0 1.571 0 0.449-0.449 0.449-0.673 0.449z"></path>
</symbol>
<symbol id="filter" viewBox="0 0 32 32">
<path d="M15.133 30.566c-1.387 0-2.601-1.214-2.601-2.601v-11.618c0-0.173 0-0.347-0.173-0.52l-6.936-8.15c-0.347-0.52-0.694-1.040-0.694-1.734v-2.775c0-1.387 1.214-2.601 2.601-2.601h17.341c1.387 0 2.601 1.214 2.601 2.601v2.775c0 0.694-0.173 1.214-0.694 1.734l-6.936 8.15c-0.173 0-0.173 0.173-0.173 0.347v10.751c0 1.040-0.52 1.908-1.387 2.254l-1.734 0.867c-0.347 0.347-0.867 0.52-1.214 0.52zM7.329 2.127c-0.52 0-0.867 0.347-0.867 0.867v2.775c0 0.173 0 0.347 0.173 0.52l6.936 8.15c0.347 0.52 0.694 1.040 0.694 1.734v11.618c0 0.694 0.694 1.040 1.214 0.694l1.734-0.867c0.347-0.173 0.52-0.52 0.52-0.694v-10.751c0-0.694 0.173-1.214 0.694-1.734l6.936-8.15c0.173-0.173 0.173-0.347 0.173-0.52v-2.775c0-0.52-0.347-0.867-0.867-0.867h-17.341z"></path>
<path d="M5.595 5.595h20.983v1.734h-20.983v-1.734z"></path>
</symbol>
<symbol id="login" viewBox="0 0 32 32">
<path d="M11 23c-0.2 0-0.6 0-0.8-0.2-0.4-0.4-0.4-1 0-1.4l5.2-5.2-5.2-5.2c-0.4-0.4-0.4-1 0-1.4s1-0.4 1.4 0l6 6c0.4 0.4 0.4 1 0 1.4l-6 6c0 0-0.4 0-0.6 0z"></path>
<path d="M16 17h-16c-0.6 0-1-0.4-1-1s0.4-1 1-1h16c0.6 0 1 0.4 1 1s-0.4 1-1 1z"></path>
<path d="M24 31h-12c-0.6 0-1-0.4-1-1s0.4-1 1-1h12c1.6 0 3-1.4 3-3v-20c0-1.6-1.4-3-3-3h-12c-0.6 0-1-0.4-1-1s0.4-1 1-1h12c2.8 0 5 2.2 5 5v20c0 2.8-2.2 5-5 5z"></path>
</symbol>
<symbol id="logout" viewBox="0 0 32 32">
<path d="M24 23c-0.2 0-0.6 0-0.8-0.2-0.4-0.4-0.4-1 0-1.4l5.2-5.2-5.2-5.2c-0.4-0.4-0.4-1 0-1.4s1-0.4 1.4 0l6 6c0.4 0.4 0.4 1 0 1.4l-6 6c0 0-0.4 0-0.6 0z"></path>
<path d="M29 17h-16c-0.6 0-1-0.4-1-1s0.4-1 1-1h16c0.6 0 1 0.4 1 1s-0.4 1-1 1z"></path>
<path d="M18 31h-12c-2.8 0-5-2.2-5-5v-20c0-2.8 2.2-5 5-5h12c0.6 0 1 0.4 1 1s-0.4 1-1 1h-12c-1.6 0-3 1.4-3 3v20c0 1.6 1.4 3 3 3h12c0.6 0 1 0.4 1 1s-0.4 1-1 1z"></path>
</symbol>
<symbol id="setting" viewBox="0 0 32 32">
<path d="M16 20.386c-2.456 0-4.386-1.93-4.386-4.386s1.93-4.386 4.386-4.386 4.386 1.93 4.386 4.386-1.93 4.386-4.386 4.386zM16 13.368c-1.403 0-2.632 1.228-2.632 2.632s1.228 2.632 2.632 2.632 2.632-1.228 2.632-2.632-1.228-2.632-2.632-2.632z"></path>
<path d="M17.228 30.912h-2.281c-1.053 0-2.105-0.877-2.105-2.105v-1.754c-0.702-0.175-1.403-0.526-2.105-0.877-0.175 0-0.351 0-0.351 0l-1.228 1.228c-0.702 0.702-2.105 0.702-2.982 0l-1.754-1.754c-0.877-0.877-0.877-2.105 0-2.982l1.228-1.228c0.175-0.175 0-0.351 0-0.351-0.351-0.526-0.526-1.228-0.702-1.754 0-0.175-0.175-0.175-0.351-0.175h-1.579c-1.053 0-2.105-0.877-2.105-2.105v-2.281c0-1.053 0.877-2.105 2.105-2.105h1.579c0.175 0 0.175-0.175 0.351-0.175 0.175-0.702 0.526-1.228 0.702-1.754 0-0.175 0-0.175 0-0.351l-1.228-1.228c-0.877-0.877-0.877-2.105 0-2.982l1.754-1.754c0.702-0.702 2.105-0.702 2.982 0l1.228 1.228c0.175 0.175 0.175 0.175 0.351 0 0.526-0.351 1.228-0.526 1.754-0.702 0.175 0 0.175-0.175 0.175-0.351v-1.579c0-1.053 0.877-2.105 2.105-2.105h2.281c1.053 0 2.105 0.877 2.105 2.105v1.579c0 0.175 0.175 0.175 0.175 0.351 0.526 0.175 1.228 0.526 1.754 0.702 0.175 0 0.351 0 0.351 0l1.228-1.228c0.702-0.702 2.105-0.702 2.982 0l1.754 1.754c0.877 0.877 0.877 2.105 0 2.982l-1.228 1.228c-0.175 0.175 0 0.351 0 0.351 0.351 0.526 0.526 1.228 0.702 1.754 0 0.175 0.175 0.175 0.351 0.175h1.579c1.053 0 2.105 0.877 2.105 2.105v2.281c0 1.053-0.877 2.105-2.105 2.105h-1.579c-0.175 0-0.175 0.175-0.351 0.175-0.175 0.702-0.526 1.228-0.702 1.754 0 0.175 0 0.175 0 0.351l1.228 1.228c0.877 0.877 0.877 2.105 0 2.982l-1.754 1.754c-0.702 0.702-2.105 0.702-2.982 0l-1.228-1.228c-0.175-0.175-0.175-0.175-0.351 0-0.526 0.351-1.228 0.526-1.754 0.702-0.175 0-0.175 0.175-0.175 0.351v1.579c0 1.228-0.877 2.105-1.93 2.105zM10.561 24.421c0.351 0 0.702 0 1.053 0.175 0.702 0.351 1.579 0.702 2.281 0.877 0.351 0.175 0.702 0.526 0.702 0.877v2.456c0 0.175 0.175 0.351 0.351 0.351h2.281c0.175 0 0.351-0.175 0.351-0.351v-1.579c0-0.877 0.526-1.754 1.403-1.93 0.526-0.175 1.053-0.351 1.579-0.702 0.877-0.351 1.754-0.351 2.456 0.351l1.228 1.228c0.175 0.175 0.351 0.175 0.351 0l1.754-1.754c0.175-0.175 0.175-0.351 0-0.351l-1.228-1.228c-0.702-0.702-0.702-1.579-0.351-2.456 0.175-0.526 0.526-1.053 0.702-1.579 0.351-0.877 1.053-1.403 1.93-1.403h1.579c0.175 0 0.351-0.175 0.351-0.351v-2.281c0-0.175-0.175-0.351-0.351-0.351h-1.579c-0.877 0-1.754-0.526-1.93-1.403-0.175-0.526-0.351-1.053-0.702-1.579-0.351-0.877-0.351-1.754 0.351-2.456l1.228-1.228c0.175-0.175 0.175-0.351 0-0.351l-1.754-1.754c-0.175-0.175-0.351-0.175-0.351 0l-1.228 1.228c-0.702 0.526-1.579 0.702-2.456 0.351-0.526-0.175-1.053-0.526-1.579-0.702-0.877-0.351-1.403-1.053-1.403-1.93v-1.579c0-0.175-0.175-0.351-0.351-0.351h-2.281c-0.175 0-0.351 0.175-0.351 0.351v1.579c0 0.877-0.526 1.754-1.403 1.93-0.526 0.175-1.053 0.351-1.579 0.702-0.877 0.351-1.754 0.351-2.456-0.351l-1.228-1.228c-0.175-0.175-0.351-0.175-0.351 0l-1.754 1.754c-0.175 0.175-0.175 0.351 0 0.351l1.228 1.228c0.702 0.702 0.702 1.579 0.351 2.456-0.175 0.526-0.526 1.053-0.702 1.579-0.351 0.877-1.053 1.403-1.93 1.403h-1.579c-0.175 0-0.351 0.175-0.351 0.351v2.281c0 0.175 0.175 0.351 0.351 0.351h1.579c0.877 0 1.754 0.526 1.93 1.403 0.175 0.526 0.351 1.053 0.702 1.579 0.351 0.877 0.351 1.754-0.351 2.456l-1.228 1.228c-0.175 0.175-0.175 0.351 0 0.351l1.754 1.754c0.175 0.175 0.351 0.175 0.351 0l1.228-1.228c0.351-0.351 0.877-0.526 1.403-0.526z"></path>
</symbol>
<symbol id="telephone" viewBox="0 0 32 32">
<path d="M22.167 30.978v0c-1.586 0-3.172-0.529-4.405-1.41-3.7-2.643-6.167-4.934-8.282-7.048s-4.405-4.582-7.048-8.282c-2.643-3.524-1.586-8.106 2.467-12.335 1.233-1.233 3.348-1.233 4.582 0l2.467 2.467c0.529 0.529 0.881 1.41 0.881 2.291s-0.352 1.762-0.881 2.291l-1.057 1.057c-0.352 0.352-0.176 0.881 0 1.233 1.233 1.586 3.348 3.877 4.582 4.934 1.233 1.233 3.348 3.348 4.934 4.582 0.352 0.352 0.881 0.352 1.233 0l1.057-1.057c1.233-1.233 3.348-1.233 4.582 0l2.467 2.467c0.529 0.529 0.881 1.41 0.881 2.291s-0.352 1.762-0.881 2.291c-2.291 2.819-4.934 4.229-7.577 4.229zM7.189 2.784c-0.352 0-0.705 0.176-1.057 0.352-3.524 3.524-4.229 7.225-2.291 10.044 2.643 3.7 4.758 5.991 6.872 8.106s4.405 4.229 8.106 6.872c2.819 1.938 6.52 1.233 10.044-2.291 0.352-0.352 0.352-0.705 0.352-1.057s-0.176-0.705-0.352-1.057l-2.643-2.467c-0.529-0.529-1.586-0.529-2.114 0l-1.057 1.057c-0.881 0.881-2.291 0.881-3.524 0-1.762-1.233-3.877-3.524-5.11-4.758s-3.524-3.524-4.758-5.11c-0.881-1.233-0.881-2.643 0-3.524l1.057-1.057c0.352-0.352 0.352-0.705 0.352-1.057s-0.176-0.705-0.352-1.057l-2.467-2.467c-0.352-0.352-0.705-0.529-1.057-0.529z"></path>
</symbol>
<symbol id="user" viewBox="0 0 32 32">
<path d="M16.38 17.139c-4.177 0-7.595-3.797-7.595-8.544s3.418-8.544 7.595-8.544 7.595 3.797 7.595 8.544-3.418 8.544-7.595 8.544zM16.38 1.949c-3.228 0-5.696 3.038-5.696 6.646s2.468 6.646 5.696 6.646 5.696-3.038 5.696-6.646-2.468-6.646-5.696-6.646z"></path>
<path d="M27.772 30.051c-0.57 0-0.949-0.38-0.949-0.949v-6.456c0-3.608-2.848-6.456-6.456-6.456h-0.57c-0.57 0-0.949-0.38-0.949-0.949s0.38-0.949 0.949-0.949h0.759c4.557 0 8.354 3.797 8.354 8.354v6.456c-0.19 0.57-0.57 0.949-1.139 0.949z"></path>
<path d="M4.987 30.051c-0.57 0-0.949-0.38-0.949-0.949v-6.456c0-4.557 3.797-8.354 8.354-8.354h0.759c0.57 0 0.949 0.38 0.949 0.949s-0.38 0.949-0.949 0.949h-0.759c-3.608 0-6.456 2.848-6.456 6.456v6.456c0 0.57-0.38 0.949-0.949 0.949z"></path>
</symbol>
</defs>
</svg>
